<svg width="64" height="64" viewBox="0 0 64 64" fill="none" xmlns="http://www.w3.org/2000/svg">
<rect width="64" height="64" rx="8" fill="#F97316"/>
<path d="M27.583 21.9893C31.1699 21.9893 34.0776 19.0815 34.0776 15.4946C34.0776 11.9077 31.1699 9 27.583 9C23.9961 9 21.0884 11.9077 21.0884 15.4946C21.0884 19.0815 23.9961 21.9893 27.583 21.9893Z" stroke="white" stroke-width="5" stroke-miterlimit="10" stroke-linejoin="round"/>
<path d="M39.305 42.978H50.0766C51.8191 42.978 53.3239 41.5523 53.3239 39.7307C53.3239 37.9882 51.8983 36.4834 50.0766 36.4834H43.7404L39.305 28.5631C38.4338 26.979 36.7705 25.9494 34.8697 25.9494H18.6331C15.1482 25.9494 12.3761 28.8007 12.3761 32.2064V51.2151C12.3761 53.1159 13.9601 54.7 15.861 54.7C17.7619 54.7 19.3459 53.1159 19.3459 51.2151V33.7905V51.4527H35.2657V35.4537L39.305 42.978Z" stroke="white" stroke-width="5" stroke-miterlimit="10" stroke-linejoin="round"/>
</svg>
